<svg width="34" height="30" viewBox="0 0 34 30" fill="none" xmlns="http://www.w3.org/2000/svg">
<path d="M2 12.7279C0.89543 12.7279 0 13.6233 0 14.7279C0 15.8325 0.89543 16.7279 2 16.7279V14.7279V12.7279ZM33.4142 16.1421C34.1953 15.3611 34.1953 14.0947 33.4142 13.3137L20.6863 0.58577C19.9052 -0.195279 18.6389 -0.195279 17.8579 0.58577C17.0768 1.36682 17.0768 2.63315 17.8579 3.4142L29.1716 14.7279L17.8579 26.0416C17.0768 26.8227 17.0768 28.089 17.8579 28.87C18.6389 29.6511 19.9052 29.6511 20.6863 28.87L33.4142 16.1421ZM2 14.7279V16.7279H32V14.7279V12.7279H2V14.7279Z" fill="black"/>
</svg>
