<svg width="80" height="80" viewBox="0 0 80 80" fill="none" xmlns="http://www.w3.org/2000/svg">
<path d="M41.7186 74.0625L41.5936 74.0422C41.6111 74.0557 41.6317 74.0647 41.6535 74.0682C41.6754 74.0717 41.6977 74.0698 41.7186 74.0625ZM70.1405 29.3406C70.1048 29.1521 70.0072 28.9809 69.8632 28.8541C69.7191 28.7274 69.5368 28.6525 69.3453 28.6411C69.1538 28.6298 68.9639 28.6828 68.8059 28.7917C68.648 28.9006 68.5309 29.0592 68.4733 29.2422C68.4182 29.4159 68.3094 29.5678 68.1625 29.6759C68.0157 29.7839 67.8384 29.8427 67.6561 29.8437H65.2389C65.0825 29.8437 64.9291 29.8011 64.7952 29.7203L61.2983 27.6234C61.1644 27.5427 61.0109 27.5 60.8546 27.5H55.2608C55.0906 27.5 54.9241 27.5506 54.7827 27.6453L47.8842 32.2437C47.765 32.3232 47.6674 32.431 47.6003 32.5576C47.5332 32.6842 47.4987 32.8255 47.4999 32.9687V39.4906C47.4997 39.6469 47.542 39.8003 47.6224 39.9344C47.7028 40.0684 47.8182 40.1781 47.9561 40.2516L57.0014 45.0797C57.1373 45.1528 57.2513 45.2608 57.3315 45.3927C57.4117 45.5245 57.4552 45.6754 57.4577 45.8297L57.4999 49.5C57.5023 49.6519 57.5447 49.8006 57.6229 49.9309C57.7011 50.0612 57.8122 50.1686 57.9452 50.2422L61.5796 52.2531C61.7142 52.3279 61.8265 52.4373 61.9048 52.57C61.983 52.7026 62.0245 52.8538 62.0249 53.0078V60.6016C62.0249 60.7675 62.0728 60.9299 62.1628 61.0693C62.2529 61.2087 62.3812 61.3192 62.5325 61.3875C62.6837 61.4558 62.8515 61.479 63.0156 61.4543C63.1797 61.4297 63.3332 61.3582 63.4577 61.2484C64.9233 59.9578 67.0249 58.0734 67.3046 57.6422C67.7671 56.9266 68.2009 56.1937 68.6061 55.4437C69.4453 53.8898 70.156 52.2698 70.7311 50.6C72.7124 44.8641 71.1467 34.5531 70.1405 29.3406ZM44.7499 47.3125L35.1671 40.125C35.0589 40.0439 34.9273 40 34.7921 40H30.2452C30.1674 40.0001 30.0904 39.9848 30.0185 39.955C29.9466 39.9253 29.8814 39.8816 29.8264 39.8266L27.6827 37.6828C27.6246 37.6248 27.5556 37.5788 27.4798 37.5474C27.4039 37.516 27.3226 37.4999 27.2405 37.5H18.9296C18.8124 37.5 18.6979 37.4653 18.6005 37.4002C18.5032 37.3351 18.4272 37.2426 18.3824 37.1344C18.3376 37.0262 18.3259 36.9071 18.3487 36.7923C18.3716 36.6774 18.428 36.5719 18.5108 36.4891L19.8264 35.1734C19.8814 35.1184 19.9466 35.0747 20.0185 35.0449C20.0904 35.0152 20.1674 34.9999 20.2452 35H25.303C25.5754 35 25.8404 34.911 26.0575 34.7466C26.2747 34.5821 26.4322 34.3512 26.5061 34.0891L27.5827 30.2609C27.6056 30.1787 27.6452 30.102 27.699 30.0356C27.7527 29.9692 27.8195 29.9146 27.8952 29.875L32.1874 27.6656C32.2839 27.6157 32.3649 27.5402 32.4214 27.4473C32.4779 27.3544 32.5078 27.2478 32.5077 27.1391V25.1859C32.5077 25.0647 32.5447 24.9464 32.6139 24.8469L34.8952 21.5625C34.9636 21.4638 35.0607 21.3885 35.1733 21.3469L38.3655 20.1484C38.4784 20.1061 38.5757 20.0303 38.6444 19.9312C38.7131 19.8321 38.7499 19.7143 38.7499 19.5937V17.8125C38.7499 17.7148 38.7258 17.6187 38.6797 17.5325C38.6336 17.4464 38.567 17.373 38.4858 17.3187L35.2858 15.1906C35.1979 15.1328 35.0963 15.0991 34.9912 15.0931C34.8861 15.0871 34.7813 15.1088 34.6874 15.1562L30.3311 17.3344C30.2315 17.3836 30.12 17.4037 30.0094 17.3923C29.8988 17.381 29.7937 17.3387 29.7061 17.2703L27.6405 15.6375C27.57 15.5808 27.5134 15.5088 27.475 15.4269C27.4366 15.345 27.4174 15.2554 27.4189 15.1649C27.4204 15.0745 27.4426 14.9856 27.4837 14.905C27.5248 14.8244 27.5838 14.7543 27.6561 14.7L29.3342 13.4641C29.4102 13.4083 29.4717 13.3352 29.5137 13.2509C29.5557 13.1665 29.5769 13.0734 29.5755 12.9792C29.5741 12.885 29.5502 12.7925 29.5058 12.7094C29.4614 12.6263 29.3977 12.555 29.3202 12.5016L26.7061 10.6781C26.6156 10.6144 26.5091 10.5774 26.3985 10.5713C26.288 10.5652 26.1781 10.5903 26.0811 10.6437C25.1358 11.1609 22.3624 12.6922 21.378 13.3812C16.8235 16.5753 13.1582 20.8773 10.728 25.8812C10.4436 26.4687 10.0921 27.0672 10.0577 27.7125C10.0233 28.3578 9.51706 29.7984 9.30612 30.3812C9.27766 30.46 9.26629 30.544 9.27276 30.6275C9.27922 30.711 9.30338 30.7922 9.34362 30.8656L14.9202 41.1125C14.9704 41.2056 15.0449 41.2834 15.1358 41.3375L21.003 44.8594C21.0791 44.9047 21.144 44.9666 21.193 45.0404C21.242 45.1143 21.2737 45.1982 21.2858 45.2859L22.4608 53.8078C22.4723 53.8895 22.5006 53.9679 22.5439 54.0381C22.5872 54.1083 22.6445 54.1687 22.7124 54.2156L27.2905 57.3625C27.4231 57.4537 27.5155 57.5925 27.5483 57.75L29.9764 69.2812C29.99 69.3489 30.016 69.4136 30.053 69.4719C30.2811 69.8406 31.1905 71.1906 32.2874 71.3906C32.1858 71.4187 32.0952 71.4828 31.9936 71.5125C32.2571 71.5589 32.5179 71.6194 32.7749 71.6937C33.0874 71.7781 33.3999 71.85 33.7124 71.9172C34.2014 72.0141 34.2499 72.0891 34.4842 71.6547C34.7967 71.0734 35.1546 70.8734 35.4217 70.8016C35.532 70.7761 35.6329 70.7201 35.7127 70.64C35.7926 70.5598 35.8483 70.4588 35.8733 70.3484L37.4467 63.0547C37.4798 62.9018 37.569 62.7669 37.6967 62.6766L44.728 57.6922C44.8097 57.6344 44.8763 57.5578 44.9223 57.4689C44.9682 57.38 44.9922 57.2813 44.9921 57.1812V47.8125C44.993 47.7161 44.9716 47.6208 44.9296 47.5341C44.8876 47.4474 44.8261 47.3715 44.7499 47.3125Z" fill="black"/>
<path d="M40.9374 7.5C40.9374 7.5 40.3671 7.53281 40.2515 7.53594C39.4046 7.56094 38.5598 7.61927 37.7171 7.71094C34.6451 8.04431 31.6365 8.81512 28.7827 10C29.1624 10.2625 28.5093 10.5031 28.5093 10.5031L29.5312 12.5H34.9999L38.7499 14.375L42.0312 12.5L40.9374 7.5ZM55.3483 18.7594L57.8655 16.5719C57.9443 16.5035 58.0047 16.4165 58.0413 16.3187C58.0778 16.221 58.0893 16.1157 58.0747 16.0124C58.0601 15.9091 58.0199 15.8111 57.9577 15.7273C57.8955 15.6436 57.8133 15.5767 57.7187 15.5328L54.7796 14.1687C54.6303 14.0991 54.4595 14.0912 54.3045 14.1468C54.1494 14.2024 54.0225 14.317 53.9515 14.4656L52.7405 16.9984C52.6746 17.1369 52.6619 17.2948 52.7048 17.442C52.7478 17.5892 52.8433 17.7155 52.9733 17.7969L54.6077 18.8188C54.7213 18.8894 54.8545 18.9218 54.9878 18.9111C55.1211 18.9004 55.2475 18.8472 55.3483 18.7594ZM67.1312 21.9797L66.2202 20.5734C66.2062 20.5516 66.1937 20.5297 66.1812 20.5063C66.0171 20.1703 64.6593 17.4281 63.5249 16.3641C62.6733 15.5594 62.4312 15.7906 62.364 15.9688C62.3256 16.0673 62.2613 16.1536 62.178 16.2188L57.6718 19.8609C57.5608 19.9507 57.4224 19.9998 57.2796 20H54.9468C54.8647 19.9999 54.7834 20.016 54.7075 20.0474C54.6316 20.0788 54.5627 20.1248 54.5046 20.1828L52.6296 22.0578C52.5715 22.1159 52.5254 22.1848 52.4939 22.2607C52.4625 22.3365 52.4463 22.4179 52.4463 22.5C52.4463 22.5821 52.4625 22.6635 52.4939 22.7393C52.5254 22.8152 52.5715 22.8841 52.6296 22.9422L54.5046 24.8172C54.5627 24.8752 54.6316 24.9212 54.7075 24.9526C54.7834 24.984 54.8647 25.0001 54.9468 25H66.6921C66.7765 25.0001 66.86 24.9831 66.9376 24.95C67.0152 24.917 67.0853 24.8685 67.1437 24.8077C67.2021 24.7468 67.2476 24.6747 67.2774 24.5958C67.3072 24.5169 67.3207 24.4327 67.3171 24.3484L67.2312 22.2937C67.2265 22.182 67.192 22.0735 67.1312 21.9797Z" fill="black"/>
<path d="M40 11.25C46.6515 11.2494 53.0974 13.5552 58.2394 17.7745C63.3814 21.9937 66.9014 27.8654 68.1995 34.389C69.4977 40.9126 68.4937 47.6845 65.3586 53.5508C62.2236 59.4171 57.1514 64.0149 51.0064 66.5608C44.8614 69.1066 38.0238 69.443 31.6586 67.5126C25.2934 65.5822 19.7944 61.5045 16.0987 55.9742C12.4029 50.4439 10.7391 43.8033 11.3907 37.1838C12.0422 30.5643 14.9688 24.3755 19.6719 19.6719C22.335 16.9936 25.5029 14.8701 28.9923 13.4245C32.4816 11.9789 36.2231 11.2398 40 11.25ZM40 5C20.6719 5 5 20.6719 5 40C5 59.3281 20.6719 75 40 75C59.3281 75 75 59.3281 75 40C75 20.6719 59.3281 5 40 5Z" fill="black"/>
</svg>
