<svg width="80" height="80" viewBox="0 0 80 80" fill="none" xmlns="http://www.w3.org/2000/svg">
<path d="M72.7334 51.4L64.4 65.8333C62.7667 68.7 59.7334 70.2 56.6667 70H50V76.6666L41.6667 61.6666L50 46.6666V53.3333H59.4L52 40.5L66.4334 32.1666L72.4334 42.5666C74.1667 45.1333 74.4 48.5666 72.7334 51.4ZM30.7 10.2H47.3667C50.6334 10.2 53.4667 12.1 54.8334 14.8333L58.1667 20.6333L63.9334 17.3L55.1334 32L37.9667 32.2999L43.7334 28.9666L39.0334 20.8L31.6667 33.6333L17.2 25.3L23.2 14.9C24.5667 12.1333 27.4 10.2 30.7 10.2ZM16.8334 65.8666L8.50003 51.4333C6.8667 48.6 7.10003 45.1999 8.80003 42.6333L12.1334 36.8666L6.3667 33.5333L23.5 33.8L32.3334 48.5333L26.5667 45.2L21.8667 53.3333H36.6667V70H24.6667C23.105 70.113 21.543 69.7855 20.1582 69.0548C18.7735 68.3241 17.6215 67.2195 16.8334 65.8666Z" fill="black"/>
</svg>
