<svg width="140" height="80" viewBox="0 0 140 80" fill="none" xmlns="http://www.w3.org/2000/svg">
<path fill-rule="evenodd" clip-rule="evenodd" d="M17 36.2C17 35.5369 17.2634 34.901 17.7322 34.4322C18.2011 33.9633 18.837 33.7 19.5 33.7H59.5C60.163 33.7 60.7989 33.9633 61.2678 34.4322C61.7366 34.901 62 35.5369 62 36.2C62 36.863 61.7366 37.4989 61.2678 37.9677C60.7989 38.4366 60.163 38.7 59.5 38.7H19.5C18.837 38.7 18.2011 38.4366 17.7322 37.9677C17.2634 37.4989 17 36.863 17 36.2Z" fill="black"/>
<path fill-rule="evenodd" clip-rule="evenodd" d="M37.2767 29C34.9767 29 33.11 30.8667 33.11 33.1667V36.2H28.11V33.1667C28.11 30.7355 29.0758 28.4039 30.7949 26.6849C32.5139 24.9658 34.8455 24 37.2767 24H41.7233C44.1545 24 46.4861 24.9658 48.2051 26.6849C49.9242 28.4039 50.89 30.7355 50.89 33.1667V36.2H45.89V33.1667C45.89 30.8667 44.0233 29 41.7233 29H37.2767ZM19.5 36.2L26.1667 79.8333H52.8333L59.5 36.2H19.5ZM41.1667 48.32C41.1667 47.878 40.9911 47.454 40.6785 47.1415C40.366 46.8289 39.942 46.6533 39.5 46.6533C39.058 46.6533 38.634 46.8289 38.3215 47.1415C38.0089 47.454 37.8333 47.878 37.8333 48.32V67.7133C37.8333 68.1554 38.0089 68.5793 38.3215 68.8918C38.634 69.2044 39.058 69.38 39.5 69.38C39.942 69.38 40.366 69.2044 40.6785 68.8918C40.9911 68.5793 41.1667 68.1554 41.1667 67.7133V48.32ZM30.42 46.6533C30.6339 46.6186 30.8526 46.628 31.0628 46.6811C31.2729 46.7341 31.4699 46.8297 31.6417 46.9618C31.8134 47.0939 31.9563 47.2598 32.0615 47.4492C32.1667 47.6387 32.232 47.8477 32.2533 48.0633L34.4733 67.4567C34.523 67.9014 34.4003 68.3483 34.1306 68.7054C33.8609 69.0625 33.4647 69.3027 33.0233 69.3767C32.8097 69.4104 32.5915 69.4002 32.382 69.3468C32.1725 69.2933 31.9761 69.1976 31.8048 69.0657C31.6335 68.9337 31.4909 68.7681 31.3858 68.5792C31.2806 68.3902 31.2152 68.1818 31.1933 67.9667L28.97 48.5733C28.9213 48.1291 29.0443 47.6831 29.314 47.3267C29.5836 46.9703 29.9793 46.7306 30.42 46.6567M50.03 48.5767C50.0787 48.1325 49.9557 47.6864 49.686 47.3301C49.4164 46.9737 49.0207 46.7339 48.58 46.66C48.3664 46.6253 48.1479 46.6346 47.938 46.6874C47.728 46.7403 47.5312 46.8355 47.3594 46.9673C47.1877 47.099 47.0448 47.2645 46.9394 47.4536C46.834 47.6427 46.7684 47.8513 46.7467 48.0667L44.5267 67.46C44.477 67.9047 44.5997 68.3516 44.8694 68.7087C45.1391 69.0658 45.5353 69.306 45.9767 69.38C46.1903 69.4142 46.4087 69.4044 46.6184 69.3511C46.8282 69.2979 47.0248 69.2023 47.1962 69.0702C47.3676 68.9381 47.5101 68.7724 47.6151 68.5832C47.7201 68.394 47.7853 68.1853 47.8067 67.97L50.03 48.5767Z" fill="black"/>
<path fill-rule="evenodd" clip-rule="evenodd" d="M87.2267 8.64663C88.3711 6.53523 90.0644 4.7721 92.1279 3.5435C94.1914 2.3149 96.5485 1.66644 98.95 1.66663H101.05C103.452 1.66644 105.809 2.3149 107.872 3.5435C109.936 4.7721 111.629 6.53523 112.773 8.64663C118.24 8.75829 122.542 8.92829 125.68 9.08663C130.13 9.30996 134.62 11.72 135.993 16.4366C136.172 17.0488 136.336 17.6977 136.483 18.3833C137.383 22.59 134.188 26.025 130.232 26.3583C125.138 26.79 115.877 27.275 99.9617 27.275C84.05 27.275 74.7884 26.79 69.695 26.3583C65.7684 26.0266 62.465 22.57 63.5984 18.3233C63.9117 17.145 64.2984 16.0733 64.7034 15.1233C66.3834 11.1883 70.35 9.32996 74.2034 9.11663C77.225 8.94996 81.5417 8.76663 87.2267 8.64663ZM68.115 31.1833C68.5006 31.2555 68.8867 31.3083 69.2734 31.3416C74.5484 31.7866 83.9584 32.275 99.9617 32.275C115.968 32.275 125.378 31.7866 130.653 31.3416C131.069 31.3061 131.482 31.2488 131.892 31.17C130.523 51.2566 129.238 62.0766 128.442 67.4733C127.888 71.2233 125.358 74.5 121.398 75.4516C117.323 76.4316 110.482 77.4983 100.003 77.4983C89.5267 77.4983 82.6834 76.4316 78.6084 75.4516C74.65 74.5016 72.1184 71.225 71.565 67.4733C70.7684 62.0783 69.4834 51.2616 68.115 31.1833ZM93.8384 52.9066C94.0785 52.4861 94.1913 52.0049 94.163 51.5215C94.1348 51.0381 93.9668 50.5732 93.6795 50.1835C93.3921 49.7937 92.9977 49.4958 92.5443 49.326C92.0908 49.1561 91.5977 49.1216 91.125 49.2266L83.625 50.8933C82.9903 51.0489 82.4417 51.4468 82.0967 52.002C81.7518 52.5571 81.6379 53.2252 81.7796 53.8632C81.9212 54.5013 82.3071 55.0584 82.8545 55.4155C83.4019 55.7725 84.0674 55.9009 84.7084 55.7733L86.8834 55.29C86.2184 56.5866 85.4884 58.0566 84.77 59.5966C83.45 62.425 85.09 65.89 88.4117 66.3116C89.9067 66.5 91.8717 66.6666 94.1667 66.6666C94.8297 66.6666 95.4656 66.4032 95.9345 65.9344C96.4033 65.4656 96.6667 64.8297 96.6667 64.1666C96.6667 63.5036 96.4033 62.8677 95.9345 62.3989C95.4656 61.93 94.8297 61.6666 94.1667 61.6666C92.3167 61.6666 90.7117 61.5466 89.4467 61.4C90.7807 58.579 92.2121 55.8051 93.7384 53.0833L93.815 52.95L93.8317 52.9166L93.8384 52.9066ZM108.195 51.8966C107.714 51.9503 107.228 51.8631 106.795 51.6457C106.362 51.4282 106.002 51.0898 105.758 50.6716L105.753 50.6633L105.733 50.63L105.655 50.4966L105.348 49.9816C103.845 47.4776 102.261 45.0229 100.598 42.6216C99.84 43.6433 98.9317 44.975 98.0067 46.5766C97.8438 46.8632 97.6257 47.1148 97.3651 47.3168C97.1046 47.5188 96.8066 47.6673 96.4884 47.7536C96.1703 47.84 95.8381 47.8626 95.5112 47.8201C95.1842 47.7776 94.8689 47.6709 94.5834 47.506C94.2979 47.3412 94.0478 47.1215 93.8475 46.8596C93.6472 46.5977 93.5007 46.2987 93.4165 45.98C93.3322 45.6612 93.3118 45.329 93.3565 45.0023C93.4011 44.6757 93.51 44.361 93.6767 44.0766C94.6388 42.4102 95.7031 40.805 96.8634 39.27C98.8884 36.6033 102.71 36.9166 104.497 39.4733C105.472 40.865 106.38 42.2333 107.17 43.4566L107.838 41.3333C108.037 40.7007 108.479 40.1731 109.067 39.8665C109.655 39.5599 110.341 39.4994 110.973 39.6983C111.606 39.8972 112.134 40.3392 112.44 40.9272C112.747 41.5151 112.807 42.2008 112.608 42.8333L110.302 50.1616C110.156 50.6236 109.88 51.0333 109.506 51.341C109.132 51.6487 108.676 51.8411 108.195 51.895V51.8966ZM101.24 61.8383C100.756 61.84 100.282 61.9825 99.8769 62.2484C99.4719 62.5143 99.1528 62.8922 98.9586 63.3361C98.7644 63.78 98.7033 64.2708 98.7829 64.7488C98.8624 65.2267 99.0792 65.6712 99.4067 66.0283L104.602 71.69C104.822 71.9389 105.089 72.1414 105.388 72.2858C105.688 72.4302 106.013 72.5135 106.344 72.5308C106.676 72.5482 107.008 72.4992 107.321 72.3868C107.633 72.2744 107.92 72.1008 108.165 71.8762C108.41 71.6516 108.607 71.3804 108.746 71.0786C108.885 70.7768 108.962 70.4503 108.973 70.1182C108.985 69.7862 108.929 69.4553 108.811 69.1448C108.693 68.8343 108.514 68.5505 108.285 68.31L106.782 66.6683C108.379 66.5905 109.975 66.4833 111.568 66.3466C114.675 66.075 116.857 62.9216 115.562 59.835C114.812 58.0631 113.954 56.3392 112.992 54.6733C112.828 54.3889 112.609 54.1396 112.348 53.9396C112.088 53.7397 111.791 53.593 111.473 53.5079C111.156 53.4229 110.825 53.4012 110.5 53.444C110.174 53.4868 109.86 53.5933 109.576 53.7575C109.291 53.9216 109.042 54.1402 108.842 54.4007C108.642 54.6612 108.496 54.9585 108.411 55.2757C108.325 55.5929 108.304 55.9237 108.347 56.2493C108.389 56.5749 108.496 56.8889 108.66 57.1733C109.587 58.775 110.285 60.2266 110.79 61.395C107.679 61.6502 104.561 61.7975 101.44 61.8366L101.24 61.8383Z" fill="black"/>
</svg>
